<svg width="399" height="376" viewBox="0 0 399 376" xmlns="http://www.w3.org/2000/svg"><title>Logo blanc Copy 3</title><g id="Homepage" fill="none" fill-rule="evenodd"><g id="Homepage-Violet-RollOver" transform="translate(-521 -429)" fill="#FFBD2B"><g id="Logo-blanc-Copy-3" transform="rotate(45 60.912 993.78)"><path d="M225.604 401h-93.23c-16.705 0-30.293-13.593-30.293-30.3 0-16.7 13.588-30.284 30.292-30.284l192.423.017a8.83 8.83 0 0 1 1.151-.078c7.38 0 13.672-5.67 14.453-12.967V133.002a8.293 8.293 0 0 1-.016-.5c0-16.708 13.596-30.3 30.307-30.3 16.713 0 30.309 13.592 30.309 30.3v93.414l-.052.45.006 151.177-.028.328c-1.059 12.694-11.72 22.686-24.423 23.034l-.995.064H226.314l-.71.031zm-93.79-44.82c-7.753.295-13.97 6.696-13.97 14.52 0 8.021 6.518 14.546 14.53 14.546h92.917c.28-.018.558-.031.867-.031h148.704c.317-.037.634-.053.955-.053 4.777 0 8.84-3.635 9.375-8.324v-150.48c0-.476.015-.88.046-1.27v-92.586c0-8.021-6.526-14.546-14.547-14.546-7.919 0-14.383 6.365-14.542 14.247.009.151.013.302.013.452V328.1l-.03.335c-1.308 15.249-14.132 27.25-29.373 27.663l-.427.088-194.518-.005zm-7.933-57.393H30.306C13.596 298.787 0 285.192 0 268.481c0-16.693 13.596-30.276 30.306-30.276h192.549c.303-.037.644-.06 1.026-.06 7.396 0 13.68-5.672 14.437-12.963V30.43C238.318 13.587 251.92 0 268.64 0c16.695 0 30.278 13.587 30.278 30.29v92.95c0 .177-.005.356-.01.534.007.125.01.25.01.375v151.196l-.03.341c-1.12 12.89-11.568 22.667-24.439 23.008l-.42.064-150.148.03zM30.445 253.96c-8.159 0-14.683 6.514-14.683 14.522 0 8.025 6.524 14.554 14.544 14.554h92.838c.326-.03.637-.048.949-.048l148.71.017c.282-.031.6-.054.95-.054 4.77 0 8.846-3.64 9.402-8.34l-.014-150.585c0-.203.006-.412.01-.623l.004-.169V30.29c0-8.016-6.51-14.538-14.515-14.538-8.029 0-14.56 6.522-14.56 14.538v195.58l-.028.326c-1.274 15.323-14.186 27.37-29.536 27.694l-.306.034-.73.034H30.444z" id="Combined-Shape"/></g></g></g></svg>